<svg viewBox="0 0 32 32" xmlns="http://www.w3.org/2000/svg"><g fill="none"><circle fill="#DC3710" cx="16.004" cy="16.004" r="15.981"/><path d="M16.542 3.948a.504.504 0 1 1 0-1.008.504.504 0 0 1 0 1.008zm-2.51 0a1.004 1.004 0 1 1 0 2.007 1.004 1.004 0 0 1 0-2.007zm9.654 19.297c-.519.74-1.1 1.1-2.282 1.1H10.596c-1.182 0-1.763-.36-2.282-1.1-.713-1.012-.109-2.104-.109-2.104l4.719-9.17a.888.888 0 0 0 .085-.24.944.944 0 0 0-.217-.86l-1.259-1.403a.571.571 0 0 1-.155-.325 39.31 39.31 0 0 1-.089-1.26c0-.123-.027-.236.19-.452.167-.167.53-.16.53-.16h8.005s.364-.003.53.16c.213.213.19.329.19.453 0 .12-.077 1.166-.089 1.259a.56.56 0 0 1-.155.325c-.081.093-1.07 1.159-1.356 1.465a.395.395 0 0 1-.19.112.43.43 0 0 1-.073.008h-4.715c-.116 0-.182.011-.267.104-.128.144-.043.31-.043.31l.717 1.399c1.007 1.964 2.715 5.296 2.72 5.296a.583.583 0 0 1 .061.26.575.575 0 0 1-.58.569c-1.643 0-2.593.856-2.593 1.894 0 1.046 1.174 1.895 2.623 1.895 1.441 0 2.607-.841 2.62-1.88 0 0 .03-.344-.148-.778-.043-.105-3.46-6.737-3.46-6.737s-.066-.174.043-.33c.108-.154.29-.166.29-.166h2.999a.63.63 0 0 1 .558.337l4.103 7.919c0-.004.6 1.088-.113 2.1z" fill="#FFF"/></g></svg>