<svg width="214" height="95" xmlns="http://www.w3.org/2000/svg" xmlns:xlink="http://www.w3.org/1999/xlink"><defs><rect id="a" x="17" y="0" width="134" height="84" rx="1.68"/><mask id="b" maskContentUnits="userSpaceOnUse" maskUnits="objectBoundingBox" x="0" y="0" width="134" height="84" fill="#fff"><use xlink:href="#a"/></mask></defs><g fill="none" fill-rule="evenodd"><g fill="#959595"><path d="M188.29 95a1.09 1.09 0 0 1-1.082-1.098 1.09 1.09 0 0 1 1.081-1.098l6.49-.549v-7.704c-9.61-.73-16.225-8.247-16.225-17.82V62.61a1.09 1.09 0 0 1 1.082-1.098 1.09 1.09 0 0 1 1.081 1.098h15.145-15.145v3.708c0 8.771 6.756 15.902 15.145 16.053V95h-7.573zm15.144 0a1.09 1.09 0 0 0 1.081-1.098 1.09 1.09 0 0 0-1.081-1.098l-6.49-.549v-7.704c9.61-.73 16.225-8.247 16.225-17.82V62.61a1.09 1.09 0 0 0-1.081-1.098 1.09 1.09 0 0 0-1.082 1.098h-15.144 15.144v3.708c0 8.771-6.756 15.902-15.144 16.053V95h7.572z"/><path d="M208.397 65.14l.008-2.233H198.01v-1.116h10.4l.009-2.233h-10.41v-1.116h10.414l.009-2.233H198.01v-1.116h10.426l.008-2.233H198.01v-1.116h10.438l.009-2.232H198.01v-1.117h10.451l.002-.418c0-7.111-5.492-12.977-12.391-12.977-6.9 0-12.532 5.866-12.532 13.05v.345h10.182v1.117H183.54v2.232h10.182v1.116H183.54v2.233h10.182v1.116H183.54v2.233h10.182v1.116H183.54v2.233h10.182v1.116H183.54v2.233h10.182v1.116H183.54v.491c-.07 7.112 5.562 12.904 12.461 12.904 6.9 0 12.391-5.865 12.391-12.977l.002-.418H198.01V65.14h10.388z"/></g><use stroke="#959595" mask="url(#b)" stroke-width="6.72" xlink:href="#a"/><path d="M47.243 44.056c-.663 0-1.243-.545-1.243-1.167v-.778c0-.622.58-1.167 1.243-1.167.663 0 1.244.545 1.244 1.167v.778c0 .622-.58 1.167-1.244 1.167zm4.973-.39c-.331 0-.663-.155-.911-.31-.249-.234-.332-.545-.332-.856 0-.311.166-.622.332-.856.497-.466 1.326-.466 1.74 0 .249.234.332.545.332.856 0 .311-.166.622-.332.856a1.31 1.31 0 0 1-.829.31zm4.973 11.667c-.663 0-1.243-.544-1.243-1.166V30.833c0-.622.58-1.166 1.243-1.166.664 0 1.244.544 1.244 1.166v23.334c0 .622-.58 1.166-1.244 1.166zm9.947 7.778c-.663 0-1.244-.544-1.244-1.167V23.056c0-.623.58-1.167 1.244-1.167.663 0 1.243.544 1.243 1.167v38.888c0 .623-.58 1.167-1.243 1.167zM62.163 67c-.664 0-1.244-.544-1.244-1.167V19.167c0-.623.58-1.167 1.244-1.167.663 0 1.243.544 1.243 1.167v46.666c0 .623-.58 1.167-1.243 1.167zm9.946-10.111c-.663 0-1.244-.545-1.244-1.167V29.278c0-.622.58-1.167 1.244-1.167.663 0 1.243.545 1.243 1.167v26.444c0 .622-.58 1.167-1.243 1.167zm4.973-5.833c-.663 0-1.243-.545-1.243-1.167V35.11c0-.622.58-1.167 1.243-1.167.663 0 1.243.545 1.243 1.167v14.78c0 .622-.58 1.167-1.243 1.167zm4.973-3.89c-.663 0-1.243-.544-1.243-1.166v-7c0-.622.58-1.167 1.243-1.167.663 0 1.243.545 1.243 1.167v7c0 .622-.58 1.167-1.243 1.167zm4.973 1.945c-.663 0-1.243-.544-1.243-1.167V37.056c0-.623.58-1.167 1.243-1.167.663 0 1.243.544 1.243 1.167v10.888c0 .623-.58 1.167-1.243 1.167zM92.001 46c-.663 0-1.243-.544-1.243-1.167v-4.666c0-.623.58-1.167 1.243-1.167.663 0 1.243.544 1.243 1.167v4.666c0 .623-.58 1.167-1.243 1.167zm4.973-1.167c-.663 0-1.243-.544-1.243-1.166v-2.334c0-.622.58-1.166 1.243-1.166.663 0 1.243.544 1.243 1.166v2.334c0 .622-.58 1.166-1.243 1.166zm4.973-1.166c-.331 0-.663-.156-.911-.311-.083-.078-.166-.234-.25-.39-.082-.155-.082-.31-.082-.466v-.233c0-.078 0-.156.083-.234 0-.077.083-.155.083-.233.083-.078.083-.156.166-.156l.165-.155c.083-.078.166-.078.249-.078.083 0 .166-.078.249-.078h.497c.083 0 .166 0 .249.078.082 0 .165.078.248.078.083.078.166.078.166.155l.166.156c0 .078.083.156.083.233 0 .078.083.156.083.234v.233c0 .156 0 .311-.083.467-.083.155-.166.31-.249.389-.083.077-.249.155-.414.233-.166.078-.332.078-.498.078zm4.973.389c-.663 0-1.243-.545-1.243-1.167v-.778c0-.622.58-1.167 1.243-1.167.663 0 1.244.545 1.244 1.167v.778c0 .622-.58 1.167-1.244 1.167zm9.947 0c-.664 0-1.244-.545-1.244-1.167v-.778c0-.622.58-1.167 1.244-1.167.663 0 1.243.545 1.243 1.167v.778c0 .622-.58 1.167-1.243 1.167zm-4.974-.39c-.331 0-.663-.155-.911-.31-.249-.234-.332-.545-.332-.856v-.233c0-.078 0-.156.083-.234 0-.077.083-.155.083-.233.083-.078.083-.156.166-.156.331-.31.746-.388 1.16-.31.083 0 .166 0 .249.077.083 0 .166.078.248.078.083.078.166.078.166.155.249.234.332.545.332.856 0 .311-.166.622-.332.856-.083.077-.248.155-.414.233-.166.078-.332.078-.498.078zm9.947 0c-.332 0-.663-.155-.912-.31-.083-.078-.166-.234-.249-.39-.083-.155-.083-.31-.083-.466 0-.311.166-.622.332-.856.497-.466 1.326-.466 1.74 0 .25.234.332.545.332.856 0 .156 0 .311-.083.467-.083.155-.166.31-.249.389a1.31 1.31 0 0 1-.828.31zM70.56 88H1.676C.75 88 0 88.75 0 89.677v3.646C0 94.251.75 95 1.676 95h164.648c.927 0 1.676-.75 1.676-1.677v-3.646c0-.928-.75-1.677-1.676-1.677H97.44v.073c0 .926-.747 1.677-1.681 1.677H72.24c-.928 0-1.681-.75-1.681-1.677V88z" fill="#959595"/></g></svg>